<?xml version="1.0" standalone="no"?>
<!DOCTYPE svg PUBLIC "-//W3C//DTD SVG 20010904//EN"
 "http://www.w3.org/TR/2001/REC-SVG-20010904/DTD/svg10.dtd">
<svg version="1.0" xmlns="http://www.w3.org/2000/svg"
 width="128.000000pt" height="128.000000pt" viewBox="0 0 128.000000 128.000000"
 preserveAspectRatio="xMidYMid meet">

<g transform="translate(0.000000,128.000000) scale(0.100000,-0.100000)"
fill="#000000" stroke="none">
<path d="M318 1095 c-47 -25 -89 -48 -91 -52 -3 -5 2 -89 10 -188 15 -177 16
-180 46 -212 26 -28 29 -37 25 -78 -3 -25 -12 -54 -21 -63 -13 -15 -13 -29 0
-122 8 -58 17 -108 21 -111 14 -14 308 -129 327 -129 11 1 90 29 175 64 l155
62 13 109 c13 106 13 110 -8 148 -27 47 -22 89 15 128 24 24 27 39 43 208 l18
182 -92 49 -91 50 -229 -1 -229 0 -87 -44z m615 -11 c39 -20 77 -40 82 -45 8
-5 6 -61 -5 -178 -15 -156 -19 -172 -43 -200 -38 -46 -44 -91 -18 -145 21 -42
21 -48 9 -141 l-13 -97 -149 -59 c-81 -33 -154 -59 -161 -59 -17 0 -297 109
-308 119 -5 5 -14 51 -21 102 -12 87 -12 97 5 129 29 53 25 103 -10 143 -29
32 -30 39 -46 207 -8 95 -14 174 -13 175 2 2 39 21 83 43 l80 41 228 1 227 0
73 -36z"/>
<path d="M467 974 c-3 -4 0 -19 8 -35 23 -43 22 -555 -1 -587 l-15 -22 82 0
81 0 -16 25 c-11 17 -16 47 -16 98 0 65 3 76 25 97 14 13 28 21 31 18 3 -4 21
-48 40 -98 33 -86 34 -94 19 -116 l-15 -24 81 0 81 0 -14 23 c-8 12 -38 84
-66 160 l-52 137 30 42 c43 59 64 136 51 186 -21 75 -78 101 -227 102 -55 0
-103 -3 -107 -6z m240 -25 c96 -36 107 -133 28 -248 l-35 -50 49 -133 c27 -73
52 -141 56 -150 6 -15 1 -18 -34 -18 -31 0 -39 3 -35 15 6 14 -59 197 -79 222
-7 10 -19 5 -49 -19 l-40 -31 4 -94 3 -93 -35 0 -35 0 0 288 c0 158 -4 295 -9
305 -7 16 0 17 87 17 53 0 108 -5 124 -11z"/>
<path d="M577 913 c-12 -11 -8 -271 4 -279 35 -21 139 124 139 194 0 49 -45
92 -98 92 -21 0 -42 -3 -45 -7z m103 -33 c40 -40 14 -135 -54 -199 l-36 -35 0
127 0 127 35 0 c22 0 43 -8 55 -20z"/>
</g>
</svg>
